<svg xmlns="http://www.w3.org/2000/svg" width="1536" height="1024" viewBox="0 0 1536 1024"><rect width="100%" height="100%" fill="#f7fbff"/><text x="768" y="72" text-anchor="middle" font-family="Arial, Noto Sans, sans-serif" font-size="48" font-weight="700" fill="#183153">Hanyar Abinci da Haƙora</text><line x1="90" y1="100" x2="1446" y2="100" stroke="#9dc9e8" stroke-width="5" stroke-linecap="round" /><rect x="80" y="150" width="900" height="790" rx="28" fill="#fff" stroke="#183153" stroke-width="7"/><rect x="1020" y="150" width="436" height="790" rx="28" fill="#fffdf5" stroke="#183153" stroke-width="7"/><circle cx="500" cy="265" r="85" fill="#f3c7a8" stroke="#183153" stroke-width="6"/><path d="M370 850 Q320 460 500 380 Q680 460 630 850Z" fill="#8ecae6" stroke="#183153" stroke-width="8"/><circle cx="500" cy="280" r="20" fill="#fff" stroke="#183153" stroke-width="6"/><text x="130" y="285" text-anchor="start" font-family="Arial, Noto Sans, sans-serif" font-size="34" font-weight="700" fill="#183153">Baki</text><line x1="245" y1="275" x2="475" y2="280" stroke="#e4572e" stroke-width="9" stroke-linecap="round" /><polygon points="475,280 451,266 451,294" fill="#e4572e"/><line x1="500" y1="300" x2="500" y2="530" stroke="#e4572e" stroke-width="18" stroke-linecap="round" /><text x="130" y="440" text-anchor="start" font-family="Arial, Noto Sans, sans-serif" font-size="28" font-weight="700" fill="#183153">Bututun abinci</text><line x1="355" y1="430" x2="490" y2="430" stroke="#e4572e" stroke-width="9" stroke-linecap="round" /><polygon points="490,430 466,416 466,444" fill="#e4572e"/><path d="M500 530 q130 0 90 130 q-25 80 -100 20 q-55 -45 10 -150" fill="#f4a261" stroke="#183153" stroke-width="7"/><path d="M445 700 q130 -80 210 20 q-90 110 -190 30 q150 -50 70 100" fill="none" stroke="#e9c46a" stroke-width="24"/><text x="1238" y="230" text-anchor="middle" font-family="Arial, Noto Sans, sans-serif" font-size="38" font-weight="700" fill="#183153">Haƙora</text><path d="M1080 340 q30 -55 60 0 l-8 115 q-22 70 -44 0Z" fill="#fff" stroke="#183153" stroke-width="6"/><path d="M1162 340 q30 -55 60 0 l-8 115 q-22 70 -44 0Z" fill="#fff" stroke="#183153" stroke-width="6"/><path d="M1244 340 q30 -55 60 0 l-8 115 q-22 70 -44 0Z" fill="#fff" stroke="#183153" stroke-width="6"/><path d="M1326 340 q30 -55 60 0 l-8 115 q-22 70 -44 0Z" fill="#fff" stroke="#183153" stroke-width="6"/><text x="1238" y="560" text-anchor="middle" font-family="Arial, Noto Sans, sans-serif" font-size="30" font-weight="700" fill="#183153">Gaba: yanka</text><text x="1238" y="630" text-anchor="middle" font-family="Arial, Noto Sans, sans-serif" font-size="28" font-weight="700" fill="#183153">Masu tsini: yayyagewa</text><text x="1238" y="700" text-anchor="middle" font-family="Arial, Noto Sans, sans-serif" font-size="30" font-weight="700" fill="#183153">Baya: niƙawa</text></svg>