<svg xmlns="http://www.w3.org/2000/svg" width="1536" height="1024" viewBox="0 0 1536 1024"><rect width="100%" height="100%" fill="#f7fbff"/><text x="768" y="72" text-anchor="middle" font-family="Arial, Noto Sans, sans-serif" font-size="48" font-weight="700" fill="#183153">Hanyar Lantarki ta Aji</text><line x1="90" y1="100" x2="1446" y2="100" stroke="#9dc9e8" stroke-width="5" stroke-linecap="round" /><rect x="70" y="150" width="670" height="790" rx="28" fill="#effff8" stroke="#183153" stroke-width="7"/><rect x="796" y="150" width="670" height="790" rx="28" fill="#fff5f5" stroke="#183153" stroke-width="7"/><text x="405" y="220" text-anchor="middle" font-family="Arial, Noto Sans, sans-serif" font-size="38" font-weight="700" fill="#183153">Hanya cikakkiya</text><text x="1130" y="220" text-anchor="middle" font-family="Arial, Noto Sans, sans-serif" font-size="38" font-weight="700" fill="#183153">Hanya mai gibi</text><rect x="180" y="430" width="150" height="260" fill="#8ecae6" stroke="#183153" stroke-width="8"/><line x1="255" y1="390" x2="255" y2="430" stroke="#183153" stroke-width="8"/><text x="255" y="570" text-anchor="middle" font-family="Arial, Noto Sans, sans-serif" font-size="30" font-weight="700" fill="#183153">Batiri</text><circle cx="570" cy="520" r="55" fill="#ffe066" stroke="#183153" stroke-width="6"/><path d="M543 565 L552 605 L588 605 L597 565" fill="#a9b8c6" stroke="#183153" stroke-width="7"/><line x1="650" y1="520" x2="682" y2="520" stroke="#f4a261" stroke-width="7" stroke-linecap="round" /><line x1="626.5685424949238" y1="576.5685424949238" x2="649.1959594928933" y2="599.1959594928933" stroke="#f4a261" stroke-width="7" stroke-linecap="round" /><line x1="570" y1="600" x2="570" y2="632" stroke="#f4a261" stroke-width="7" stroke-linecap="round" /><line x1="513.4314575050762" y1="576.5685424949238" x2="490.8040405071067" y2="599.1959594928933" stroke="#f4a261" stroke-width="7" stroke-linecap="round" /><line x1="490" y1="520" x2="458" y2="520" stroke="#f4a261" stroke-width="7" stroke-linecap="round" /><line x1="513.4314575050762" y1="463.4314575050762" x2="490.80404050710666" y2="440.8040405071067" stroke="#f4a261" stroke-width="7" stroke-linecap="round" /><line x1="570" y1="440" x2="570" y2="408" stroke="#f4a261" stroke-width="7" stroke-linecap="round" /><line x1="626.5685424949238" y1="463.4314575050762" x2="649.1959594928933" y2="440.80404050710666" stroke="#f4a261" stroke-width="7" stroke-linecap="round" /><text x="570" y="340" text-anchor="middle" font-family="Arial, Noto Sans, sans-serif" font-size="30" font-weight="700" fill="#183153">Fitila</text><path d="M255 390 L570 390 L570 450 M570 605 L570 760 L255 760 L255 690" fill="none" stroke="#e4572e" stroke-width="14"/><text x="405" y="850" text-anchor="middle" font-family="Arial, Noto Sans, sans-serif" font-size="32" font-weight="700" fill="#183153">Waya</text><rect x="890" y="430" width="150" height="260" fill="#8ecae6" stroke="#183153" stroke-width="8"/><circle cx="1280" cy="520" r="55" fill="#e8eef4" stroke="#183153" stroke-width="6"/><path d="M1253 565 L1262 605 L1298 605 L1307 565" fill="#a9b8c6" stroke="#183153" stroke-width="7"/><path d="M965 430 L1280 390 L1280 450 M1280 605 L1280 760 L1120 760 M1000 760 L965 690" fill="none" stroke="#536878" stroke-width="14"/><text x="1060" y="850" text-anchor="middle" font-family="Arial, Noto Sans, sans-serif" font-size="34" font-weight="700" fill="#183153">Gibi</text></svg>